<?xml version="1.0" encoding="utf-8"?>
<!-- Generator: Adobe Illustrator 27.1.0, SVG Export Plug-In . SVG Version: 6.00 Build 0)  -->
<svg version="1.1" id="aljanah_00000160148793212908198410000003275357108069520315_"
	 xmlns="http://www.w3.org/2000/svg" xmlns:xlink="http://www.w3.org/1999/xlink" x="0px" y="0px" viewBox="0 0 35 34.3" width="35" height="35"
	 style="enable-background:new 0 0 35 34.3;" xml:space="preserve">
<style type="text/css">
	.st0{fill:#80A9D4;}
</style>
<path id="janahicon" class="st0" d="M12.4,17.1c0,0-0.6-2.1-0.3-2.1c0.9,0.1,3.3-0.8,3.3-0.8c-0.1,0.2-0.2,0.3-0.3,0.4
	c0.9,0,2.8-2.2,2.8-2.2c1.6,0,1.9,0.9,1.9,0.9c0.3-2.2-1.3-2.5-1.3-2.5c-0.4-1.2-3.9-1.2-3.9-1.2S13.9,5.6,18.2,7
	c-0.1-0.1-0.4-0.2-1-0.7c0,0,3.3,1.2,5.1,0.5c0,0-1.8-0.1-2.7-0.8c0,0,4.3,0.8,5.7,0c3.9,0.6,4.8-1,4.8-1c2.4-0.9,3.5-3.7,3.5-3.7
	s-1.6,2.9-4.8,2.6S16,0.2,6.8,7.4s-5.1,20.3,1.5,22c0,0-1.6-4.6-0.9-6.6c0,0,1.6,9.8,7.5,9.1c0,0-3.7-2-4.4-8.6
	c0,0,3.7,10.4,11.3,9.5c0,0-4.9-2.1-7.1-7.4c0,0,6.1,9.8,18.4,6.5C33.1,31.8,18.8,31.5,12.4,17.1z M26.2,5.3
	c-1.5-0.1-3.4-0.3-6.3-0.8l0,0C22.1,4.5,24.3,5,26.2,5.3z"/>
</svg>
