<svg width="204" height="136" xmlns="http://www.w3.org/2000/svg" xmlns:xlink="http://www.w3.org/1999/xlink" viewBox="0 0 1200 800"><defs><style>.cls-1,.cls-13,.cls-16,.cls-8{fill:none;}.cls-10,.cls-11,.cls-12,.cls-15,.cls-19,.cls-2,.cls-4,.cls-7,.cls-9{fill:#fff;}.cls-3{fill:#ce1126;}.cls-10,.cls-11,.cls-12,.cls-13,.cls-14,.cls-15,.cls-16,.cls-4,.cls-6,.cls-7,.cls-8,.cls-9{stroke:#c09300;}.cls-10,.cls-11,.cls-4,.cls-7,.cls-8,.cls-9{stroke-linejoin:round;}.cls-4{stroke-width:1.27px;}.cls-14,.cls-18,.cls-5,.cls-6{fill:#c09300;}.cls-15,.cls-16,.cls-6{stroke-miterlimit:10;}.cls-6{stroke-width:1.07px;}.cls-7{stroke-width:1.19px;}.cls-10,.cls-8{stroke-width:1.27px;}.cls-9{stroke-width:2.38px;}.cls-11{stroke-width:0.89px;}.cls-12{stroke-width:1.22px;}.cls-13{stroke-width:1.27px;}.cls-14{stroke-width:0.35px;}.cls-15{stroke-width:1.15px;}.cls-16{stroke-width:0.92px;}.cls-17{clip-path:url(#clip-path);}.cls-18,.cls-19{fill-rule:evenodd;}</style><clipPath id="clip-path"><path class="cls-1" d="M635.9,357.66l-1.11,0c-8.19,0-27.2-4.19-34.53-10.49-7.68,5.82-27,10.49-35.06,10.49a6.07,6.07,0,0,1-1.12-.11l.19,5.46a96,96,0,0,0,3.28,19.2,93.75,93.75,0,0,0,32.41,49,93.81,93.81,0,0,0,32.45-49.05,96.08,96.08,0,0,0,3.3-19.2c.1-1.78.17-3.56.19-5.35Z"/></clipPath></defs><g id="Layer_4" data-name="Layer 4"><path d="M0,0H1200V800H0Z"/><path class="cls-2" d="M0,0H1200V533.33H0Z"/><path class="cls-3" d="M0,0H1200V266.67H0Z"/><path class="cls-4" d="M601.07,403.2,692.39,488l-6.5-154c-1-23.34-21.23-18-36-9.57C635,334,618,334,600,327.7c-18,6.32-35,6.32-49.93-3.25-14.72-8.41-35-13.77-36,9.57l-6.5,154Z"/><path id="C" class="cls-5" d="M524.62,328.66l-6.31,149.76L507.59,488l6.51-154c3.06-2.1,8.42-5.35,10.52-5.35Zm12.83,10.72-5.36,125.27-10.71,11L527.88,331c2.11,2.1,8.42,7.26,9.57,8.41Zm11.66,9.56-4.2,104.48-8.61,8.41,5.36-119.2c2.1,2.1,6.3,5.16,7.45,6.31Zm12.63,5.36-4.21,89.05-8.42,6.82,4.21-99.12c2.11.95,6.32,3.25,8.42,3.25Zm11.67,0-3.07,74.21-8.6,8.41L565,355.25c2.1,0,7.46,0,8.42-.95Z"/><path id="C-2" data-name="C" class="cls-5" d="M675.37,328.66l6.31,149.76L692.39,488l-6.5-154c-3.06-2.1-8.42-5.35-10.52-5.35Zm-12.83,10.72,5.36,125.27,10.7,11L672.1,331c-2.1,2.1-8.42,7.26-9.56,8.41Zm-11.67,9.56,4.21,104.48,8.61,8.41-5.36-119.2c-2.1,2.1-6.31,5.16-7.46,6.31Zm-12.62,5.36,4.2,89.05,8.42,6.82-4.21-99.12c-2.1.95-6.31,3.25-8.41,3.25Zm-11.67,0,3.06,74.21,8.61,8.41L635,355.25c-2.1,0-7.46,0-8.42-.95Z"/><path class="cls-6" d="M604.21,420.08,617,478.42l-4.21,4.21-4.4-3.25-7.27-52,3.07,52L600,484.73l-4.21-5.35,3.06-52-7.27,52-4.4,3.25L583,478.42l12.82-58.34Z"/><g id="D"><path class="cls-7" d="M571.3,394.46l-25.44,90.27,35,5.36,14.91-67.9L571.3,394.46Z"/><path class="cls-8" d="M562.89,425.26l3.06,7.45,16.54-15.79"/><path class="cls-8" d="M574.34,406.56,577.8,439l10.52-13.78m-4.21,5.35,5.75,19.84m2.25-7.29L580.49,460.8m3.62,17.63-3.72-17.6-3.24-17.9-7.79,10.55-3.42-12.16L555,452.5l5.55,20.33,7.65-12.58,4.21,12.82,7.85-12.22m-27,21.78,7.07-9.92L565,488l6.32-10.71,4.21,12.82"/></g><g id="D-2" data-name="D"><path class="cls-7" d="M628.69,394.46l25.44,90.27-35,5.36-14.92-67.9,24.49-27.73Z"/><path class="cls-8" d="M637.1,425.26,634,432.71,617.5,416.92"/><path class="cls-8" d="M625.65,406.56,622.19,439l-10.53-13.78m4.21,5.35-5.74,19.84m-2.26-7.29L619.5,460.8m-3.63,17.63,3.72-17.6,3.25-17.9,7.79,10.55L634,441.32l10.9,11.18-5.54,20.33-7.65-12.58-4.21,12.82-7.85-12.22m27,21.78-7.06-9.92L635,488l-6.31-10.71-4.21,12.82"/></g><path class="cls-9" d="M600,525.08c26.59,0,52-2.1,67-6.31,6.32-1.14,6.32-4.4,6.32-8.61,6.31-2.1,3.06-9.56,7.46-9.56-4.4,1.15-5.36-7.46-10.71-6.3,0-7.47-7.46-8.42-13.78-6.32-12.62,4.21-35,5.17-56.24,5.17-21.23-1-43.42-1-56.24-5.17-6.31-2.1-13.77-1.15-13.77,6.32-5.35-1.15-6.31,7.45-10.71,6.3,4.4,0,1.15,7.46,7.46,9.56,0,4.21,0,7.47,6.51,8.61C548,523,573.41,525.08,600,525.08Z"/><path class="cls-10" d="M563.85,484.72c8.6,1.15,18.17,2.11,25.63,1.15,4.2,0,7.27,7.27-1.15,8.42-7.46.95-19.13,0-25.44-1.15-5.36-1-17-3.06-24.49-5.17-7.46-3.25-2.1-9.56,2.11-8.6a139.93,139.93,0,0,0,23.34,5.35Zm72.3,0c-8.61,1.15-18.17,2.11-25.44,1.15-4.4,0-7.46,7.27,1,8.42,7.46.95,19.13,0,25.44-1.15,5.35-1,17-3.06,24.48-5.17,7.46-3.25,2.11-9.56-2.1-8.6a140.16,140.16,0,0,1-23.34,5.35Z"/><path class="cls-10" d="M537.45,480.52c-6.51-1.14-9.57,6.31-7.46,10.52,1-2.1,5.35-2.1,6.31-4.21,1.15-3.25-1-3.25,1.15-6.31Zm25.44,19.56c0-4.2,4.2-3.68,4.2-7.89,0-2.1-1.14-5.36-3.25-5.36a4.54,4.54,0,0,0-4.21,4.21C558.68,495.25,562.89,495.88,562.89,500.08ZM593.17,488c6.3,0,5.68,8.42,2.62,12.62,0-3.06-5.36-4.2-5.36-6.31C590.43,491,595.27,491,593.17,488Zm69.37-7.46c6.5-1.14,9.57,6.31,7.46,10.52-1-2.1-5.36-2.1-6.31-4.21-1.15-3.25.95-3.25-1.15-6.31ZM637.1,500.08c0-4.2-4.2-3.68-4.2-7.89,0-2.1,1.14-5.36,3.25-5.36a4.53,4.53,0,0,1,4.2,4.21c1,4.21-3.25,4.84-3.25,9ZM606.82,488c-6.31,0-5.68,8.42-2.62,12.62,0-3.06,5.35-4.2,5.35-6.31,0-3.25-4.83-3.25-2.73-6.31Z"/><path class="cls-11" d="M539.55,482.63c2.11,0,5.36,1,6.32,2.1l-6.32-2.1Zm10.51,3.25a23.66,23.66,0,0,1,7.46,2.1l-7.47-2.1Zm38.27,4.2c-2.11,0-6.32,0-7.46,1l7.45-1Zm-11.67,0c-1.15-1.15-5.36-1.15-7.46,0Zm83.79-7.45c-2.11,0-5.17,1-6.32,2.1Zm-10.52,3.25a23.66,23.66,0,0,0-7.46,2.1l7.46-2.1Zm-38.27,4.2c2.11,0,6.31,0,7.46,1l-7.47-1Zm11.67,0c1.14-1.15,5.35-1.15,7.46,0h-7.46Z"/><path class="cls-5" d="M537.78,499.44a1.06,1.06,0,0,1-.91-1.36c.22-.81.87-1.28,1.49-1.06.39.14,1.1.86,1.11,1.12s-.38,1-.54,1a.36.36,0,0,0-.24.14,1.14,1.14,0,0,1-.91.16ZM611,504.67a1.52,1.52,0,0,1-.69-1,1.79,1.79,0,0,1,1.24-1.37,2.39,2.39,0,0,1,1.11.58,1.08,1.08,0,0,1-.2,1.61,2,2,0,0,1-1.46.14Zm.48,3.31a1,1,0,0,1-.81-1.09c-.05-.65,0-.75.7-1.12l.49-.26.46.2c.64.29.92.59.94,1a1.29,1.29,0,0,1-.85,1.18.9.9,0,0,1-.93.07Zm-67.84-14.52a3.39,3.39,0,0,0-1.46.62c-.86.2-1.87.74-2.71.17-.82-.26-1.91-.06-2,1a1.45,1.45,0,0,0,2.17.79c.55-.72,2-1.14,2.21.08-.61.92-.54,2.15-1.05,3.13a4.27,4.27,0,0,1-.66,1.71,3.31,3.31,0,0,0-1.79.37,2.84,2.84,0,0,0-2.17,1.17A6.19,6.19,0,0,0,535,505c.14,1,1.25,1.24,2.08,1.29.89.24,1.78.56,2.67.83,1.45.33,2.8.85,4.25,1.17,2.11.64,4.33.93,6.46,1.5a3.65,3.65,0,0,0,.67.17c.88.18,1.34-.78,1.41-1.5.44-1.55.78-3.12,1.21-4.67.3-.62.66-2-.54-1.71a4.85,4.85,0,0,1-2.13,1.08c-1.16.07-.5,1.26,0,1.75a3.19,3.19,0,0,1-.66,2.34c-.7.44-1.57-.08-2.3-.25-.76,0-2.29-.38-1.58-1.42.26-.77.28-1.61.58-2.37a10.54,10.54,0,0,0,.63-2.59c-.48-1-1.31.34-2,.46-.45.31-2.14.45-1.25,1.25.77.58.18,1.6,0,2.33,0,1-1.11,1.28-2,1.05-.83,0-2-.67-1.29-1.59.16-.76.43-1.52.59-2.29l.91-2.75a7.56,7.56,0,0,1,.84-2.33c0-.92.63-1.7.62-2.63-.06-.45-.26-.61-.54-.62Zm-4.79,9.66a.43.43,0,0,1,.29.05c.33.14.34.41,0,.7-.15.13-.32.26-.38.25-.62-.05-.8-.14-.83-.37s0-.26.46-.46A1.93,1.93,0,0,1,538.87,503.12Zm-1.38,6.7c-.66-.62-.56-1.08.42-1.81.42-.31.67-.27,1.15.16.74.67.77,1.1.12,1.68a1,1,0,0,1-.84.34A.93.93,0,0,1,537.49,509.82Zm4.06,1.22a1.15,1.15,0,0,1-.85-1.38.14.14,0,0,0,0-.07c.17-.58.27-.63,1.12-.64s1.14.15,1.15,1c0,.47,0,.58-.27.8a1.44,1.44,0,0,1-1.17.3Zm118.82.11a.72.72,0,0,1-.37-.69c0-.54.31-.95,1-1.25.91-.42,1.28-.36,1.63.24.45.8.43,1.13-.12,1.67-.3.3-.35.32-1,.32S660.7,511.43,660.37,511.15ZM547,512.68a1,1,0,0,1-.74-1.07c0-.45,0-.52.34-.76a1.82,1.82,0,0,1,.77-.33.85.85,0,0,1,.77.18c.74.52.89,1,.47,1.53A1.36,1.36,0,0,1,547,512.68ZM576.18,514c-.11-.13-.35-.21-.37-.38a8.59,8.59,0,0,1,.31-2.2,13.25,13.25,0,0,1,.26-2.1c.25-1.24.25-2.52.54-3.74a6.62,6.62,0,0,1,.26-1.88c.21-1,0-2,.3-2.92,0-.35.38-1.31.74-.74a12,12,0,0,0,1.89,2c.59.34,0,.83-.35,1a1.25,1.25,0,0,0-.65,1.36,15.32,15.32,0,0,0-.32,1.64c-.12.83-.1,1.67-.21,2.5a13.2,13.2,0,0,0-.23,2.52c0,.53-.24,1-.2,1.55a2.23,2.23,0,0,1-.55,1.56,1.26,1.26,0,0,1-1.42-.19Zm39.6-13.07a18.4,18.4,0,0,0-1.79,1.63c-.79.6.65.95.83,1.46a12.17,12.17,0,0,1,.25,2.41,6,6,0,0,1,.29,2.3c-.07.83-1.15.65-1.62,1.12-.66.28-.92.92-1.42,1.38a5.43,5.43,0,0,0-.46,2.16c0,.6-.4,1.27,0,1.79l.17.25c.13.2.46,0,.67.09a5.83,5.83,0,0,0,2-.21,39.62,39.62,0,0,1,4.87-.38c1,0,2-.31,3-.29.78.18,1.13-.67,1.12-1.29-.44-.87-.06-1.9-.41-2.79a15.85,15.85,0,0,1-.34-2.83.79.79,0,0,0-1.41-.46c-.46.46-1.19.55-1.54,1.12-.4.81.83.81,1,1.42a7.14,7.14,0,0,1,.21,2c.15.79-.71.83-1.25.91-.72.27-1.72.45-2.13-.41a7.5,7.5,0,0,1-.29-2c0-1.19-.3-2.36-.38-3.54-.06-1.47-.32-2.92-.41-4.38,0-.61-.1-1.6-1-1.42Zm-.83,11,.41.05,0,.5.05.5-.55.16a4.27,4.27,0,0,1-.54.13l-.25-.17c-.29-.21-.22-.51.17-.92a.68.68,0,0,1,.67-.25Zm-40-12.37c-.5.18-1.15.92-1.66.92-1.18.08-1,1.22-.17,1.62a5.65,5.65,0,0,1,0,1.17c.17,1.05-.5,1.9-.37,3-.06,1.16-.41,2.29-.46,3.46a34.71,34.71,0,0,0-.54,3.66c-.14,1.1-.94.71-1.63.42,0-.48,0-.94,0-1.42.29-1.09-.59-1.41-1.46-1.54a1.12,1.12,0,0,1-1.17-1.5c.4-.47,1.39-.34,2-.42,1.31.27,1.26-1.48.59-2.08-.46-.85-1.6-1.21-1.92-2.08a3.17,3.17,0,0,0-1.58-2.88c-1.45-.1-2.55,1.15-3.09,2.38-.6.17-1.2.35-1.79.58-.94.24-2.29,1.88-1,2.5.73.2,2.94.7,2,1.71a2.09,2.09,0,0,1-2.54.71c-1,0-2-.47-2-1.59a11.29,11.29,0,0,0-.63-3c-.19-1.12-1.46-.85-1.54.17a1.79,1.79,0,0,0-.16,2.71,3.79,3.79,0,0,1-.42,3c-.25,1.17-1.54,1.21-2.46,1.58-.45.18-2.17-.1-1.54.88a6,6,0,0,0,3.25.41,3.53,3.53,0,0,0,2.58-1.83c.74-.75,2-.36,3-.37s2.09.72,3.08.25c.29-.76,1.63-2,2.05-.71a1.61,1.61,0,0,0,2,1.62c1.15-.06.72.82.7,1.5a2.86,2.86,0,0,0,1.92,2.42,2.62,2.62,0,0,0,1.08,0c1-.31,2.08-.76,2.38-1.88a27.33,27.33,0,0,0,.71-2.87,36.59,36.59,0,0,0,.58-4.54c.37-1.39.26-2.85.54-4.25.18-1.05.31-2.09.42-3.13-.12-.55-.36-.65-.67-.54Zm-9,5.54c.2,0,.32.27.33.71a1,1,0,0,0,.59,1c.24.06.22.32,0,.5a1.77,1.77,0,0,1-.92.17,2.18,2.18,0,0,1-1.67-.63l-.25-.25.38-.25a9.45,9.45,0,0,0,.75-.67C565.5,505.25,565.75,505.07,566,505.09Zm88-10.5a11.44,11.44,0,0,0-2.21.33c-1.38-.08-2.08,1.37-.75,2.09.81,2,2.06-.43,3.34-.25,1.91.37,2.08,2.44,2.37,4a20.93,20.93,0,0,0,1,4.5c1.29,1.42-1,2.32-1.91,1.21-.82-.89-2.56-2-3.55-.75-1.2.51-1.25,2.12-2.25,2.58-1.61.49-1.81-1.49-2.66-2.33-.79-1.1-2.28-1.2-3.5-1.59-.57-1.16-.28-3.13-1.46-3.91-1,.4-2.82,2.26-1.29,3.12,1.49,1.28-.65,1.87-1.34,2.75a6.88,6.88,0,0,0-1.29,4c-1.68.93-2-1.05-2.21-2.29-.13-1.48-1.38-1.05-2.25-.5-1.27.51-1.9,1.72-2.79,2.66-.1.87,0,1.81,0,2.71.29,1.08,1.61.58,2.42.5,1.31-.54,1.84.84.79,1.63-.71.9-3,.43-2.75,1.87a10.88,10.88,0,0,0,2.21,0c1.46-.4,3-1.42,3.17-3,.19-1.41,2.22-1.15,3.33-1.46,1.39-.4,3.06-.5,3.38,1.25.94,1,3,2.11,4,.75a3.2,3.2,0,0,0,1.5-3c-.22-1,1.69-1.08,2.16-.5.7,1.15,2.87.81,3.92.17,1.12-.82,1.36-2.27,3-2.29,2.38-.71,4.84-1.13,7.17-2,1.88-.41-.28-1.6-.75-2.29-1.44-.71-2.68,2.18-4.3.75-1.24-1-1.16-2.77-1.62-4.17-.32-1.81-.24-3.9-1.54-5.33a4.12,4.12,0,0,0-3.38-1.13Zm-9.08,12.63a1.29,1.29,0,0,1,.67.25,1.75,1.75,0,0,1,1,1.29c0,.28-.08.3-.5.5a3.08,3.08,0,0,1-.67.25c-.24,0-.83-.48-.83-.67a3,3,0,0,0-.17-.62c-.16-.43-.13-.43.08-.71s.25-.29.42-.29Zm8.71.45a1,1,0,0,1,1,.5c.24.44.08.78-.54,1a2.8,2.8,0,0,1-.59.21,2.62,2.62,0,0,1-.5-.29c-.36-.24-.41-.35-.41-.62,0-.42.46-.8,1-.84Zm-11.92.13c.15,0,.28.05.46.21a1,1,0,0,1,.37.79,2.53,2.53,0,0,1,0,.83c-.06.3-.07.29-.75.29-.85,0-.93-.08-.91-.87,0-.5,0-.64.29-.92a1.05,1.05,0,0,1,.54-.33Zm-7.33,1.92a.75.75,0,0,1,.58.58c.09.42,0,.61-.33.79a1.79,1.79,0,0,1-1.17.08.66.66,0,0,1-.25-.25c-.09-.16-.07-.24,0-.33s.17-.16.17-.21a1,1,0,0,1,.21-.37.7.7,0,0,1,.75-.29Zm12.33,1.58a.84.84,0,0,1,.58.21.45.45,0,0,1,0,.75,2.92,2.92,0,0,1-1.5,0,.28.28,0,0,1-.21-.29c0-.19.05-.31.38-.46a1.9,1.9,0,0,1,.79-.21Zm-22.89,6.42c-.13-.08-.32-.15-.13-.29a1.84,1.84,0,0,1,1.1-.69,4.6,4.6,0,0,0,1.83-1.5c.07-.44.57-.68.56-1.15a7.12,7.12,0,0,0-.11-1.9,2.33,2.33,0,0,0-1.1-1.29c-.34-.27-.9-.35-1-.82s.34-.81.48-1.22c.3-.56.55-1.15.87-1.7.35-.38.88,0,1.06.35a4.22,4.22,0,0,1,.6,1.2,3.75,3.75,0,0,1,.91,1.55,2.87,2.87,0,0,1,.49,1.29c0,.55.31,1.05.29,1.61a5.81,5.81,0,0,1-.25,2.23c-.19.39-.56.62-.81,1a4.69,4.69,0,0,1-1.44,1c-.39.12-.61.56-1.09.46a11.92,11.92,0,0,1-2.07,0c0,.07-.21-.12-.16-.08Zm-9.14.6c-.32-.33-.39-.47-.39-.8s.06-.46.37-.78c.59-.59.87-.6,1.88-.09s1.29.53,1.38.18.64-.63,1.16-.64a1.1,1.1,0,0,1,.79.28c.34.26.35.3.36.9s0,.64-.39,1-.42.35-.88.3-.94-.32-1-.78-.19-.42-.27-.19a.57.57,0,0,1-.32.2,3.07,3.07,0,0,0-1.06.67,1,1,0,0,1-.69.17c-.48,0-.54,0-.91-.4Zm-26.42-11.86a2.08,2.08,0,0,0-2,1.62c.2,1,1,2,.5,3,.37,1.35-1,1.87-2,1.09a19.22,19.22,0,0,0-1.71-3.88c-1.07-.3-1.54,1.41-2.29,2,.37,1,1.46,1.91,1.58,3.17a3.2,3.2,0,0,1-1.54,3.21c-.91.87-2.17.56-3.29.75-1.37.79,1,1.09,1.62,1.12a4.61,4.61,0,0,0,3.88-1.08c1-.49.95-2.26,2.17-2.46,2.11-.09,4.21.32,6.33.38,1.13.27,2.88-.14,3.67.7,0,1.48,1.25,2.39,2.45,3,.67.19,1.37-.64,2-.79,1.28-.41.89-2,1.66-2.62,2.2-.12,4.42-.1,6.63-.13.42,0,.54-.59.83-.83,0-.85-.08-1.7-.21-2.54-.42-1.08.07-2.46-.71-3.38-1.1-.3-2,.71-3.16.79a3.72,3.72,0,0,0-2.34,3.09c-.73,1.19-1.9-.22-1.5-1.21a5.94,5.94,0,0,0,0-1.34c-.67-.81-1.86-.54-2.79-.66-1.36.05-2.68-.24-4-.21a19.35,19.35,0,0,1-3.58-.21c-1.38,0-1.19-1.38-1.42-2.33A1.31,1.31,0,0,0,588.25,506.46Zm2.66,4.91a11.92,11.92,0,0,1,1.34.13c.57.09,1.18-.2,1.75,0,1.3.22,2.6.17,3.91.29a1.29,1.29,0,0,1,.84.46V515c0,.34.1.8-.21,1a1,1,0,0,1-.34.17,1.45,1.45,0,0,1-.91-.67,8.43,8.43,0,0,1,0-1.42c0-.12,0-.31,0-.41a1.67,1.67,0,0,0-1-.34c-1.13,0-2.24-.12-3.37-.16a14.17,14.17,0,0,1-2.84-.17c-.35-.13-.82-.09-1-.46s.14-.79.46-1a3.06,3.06,0,0,1,1.33-.25Zm15,.34c.22,0,.28.06.38.46l.17.66c0,.16,0,.21-.25.29-.66.25-1.32.23-1.55-.08-.1-.14,0-.58.21-.75a2.16,2.16,0,0,1,1-.58Z"/><path class="cls-12" d="M616.41,337.46c.89.05-1.2-4.76-1.2-4.76,2.35,2.41,11.24,3,11.24,3-5.34-2.35-10.67-20.13-10-34.29s-2-19.82-4.13-21.91c-2.67-2.66-11.24-5-16.89-5.33-3.19-.16-2.66,2.4-2.66,2.4-5.91-1.51-11.82-2.09-14.48-.31s-3,10-1.21,8.57c4.45-3.55,8.32-.31,11,3.56,2.35,3.4,2.2,13-1.2,24.25-3.56,11.82-13.28,23.63-13.28,23.63,5.28,0,12.7-4.7,12.7-4.7l-1.77,7.37a45.45,45.45,0,0,0,10-6.8l5.34,5.6a54.27,54.27,0,0,1,5.33-5.6,19.28,19.28,0,0,0,11.24,5.34Z"/><path class="cls-13" d="M594.82,303.43s-3,21.91-8.57,28.13m13.28-28.7s-1.15,22.16-5,29.27m9.19-28.38s0,24.26,1.47,28.39M609,305s1.2,20.39,6.22,27.76"/><path class="cls-14" d="M589.43,292.82a10.58,10.58,0,0,0-1.41-4.45c-2.66-3.86-6.53-7.11-11-3.55,0,0,1.51-4.71,4.75-4.86,2.51-.16,8.21,1.88,13.23,10.45,0,0-3.71-.83-4.6-.05-1.68,1.46-1,2.46-1,2.46ZM576.58,279a5.17,5.17,0,0,1,1.67-2.77c2.67-1.78,8.58-1.21,14.48.31,0,0-.52-2.56,2.67-2.4,5.65.31,14.22,2.66,16.89,5.33a10.48,10.48,0,0,1,2,3.19h-.1c-1.31-1.83-5-1.73-5.91-1.62a23.25,23.25,0,0,0-4.18.57,8.35,8.35,0,0,0-3,1.05c-.58.47-1.05,2.19-1.94,2.19-1.41,0-1.3-.36-1.67-.78-.47-.58-.73-1.41-1.2-1.36-1.46.26-3.82-.89-6.8-3.24s-4.13-2.93-8-2.67-5,2.46-5,2.46Z"/><circle class="cls-2" cx="598.43" cy="280.9" r="1.57"/><path class="cls-15" d="M600,436.31c43.52-33.47,39.79-82.51,39.79-82.51a17,17,0,0,1-3.39.34c-9.13,0-30.9-5.22-36-11.85-5.45,6-27.7,11.85-36.77,11.85a16.52,16.52,0,0,1-3.39-.34s-3.79,49,39.74,82.51Z"/><path class="cls-16" d="M636.29,357.39l-1.13,0c-8.28,0-27.5-4.25-34.9-10.61-7.76,5.87-27.3,10.61-35.44,10.61a6.1,6.1,0,0,1-1.13-.12c0,1.85.08,3.78.19,5.52a97.43,97.43,0,0,0,3.32,19.41A94.81,94.81,0,0,0,600,431.78a94.92,94.92,0,0,0,32.8-49.58,98.2,98.2,0,0,0,3.33-19.4c.1-1.83.2-4.07.2-5.41Z"/><g class="cls-17"><path id="B" class="cls-18" d="M563.48,346.35h24.34V432.1H563.48Z"/><path class="cls-19" d="M587.82,346.35h24.35V432.1H587.82Z"/><path class="cls-18" d="M612.17,346.35h24.34V432.1H612.17Z"/></g></g></svg>
