<svg width="204" height="136" xmlns="http://www.w3.org/2000/svg" viewBox="0 0 1200 800"><defs><style>.cls-1{fill:#017d41;}.cls-2{fill:#b52d2f;}.cls-3{fill:#212123;}.cls-4{fill:#fff;}</style></defs><g id="Layer_2" data-name="Layer 2"><rect class="cls-1" y="603.53" width="1200" height="196.47"/><rect class="cls-2" width="1200" height="196.47"/><rect class="cls-3" y="196.47" width="1200" height="407.06"/><path class="cls-4" d="M599.85,505.72c-58.82,0-106.5-47.33-106.5-105.72S541,294.28,599.85,294.28a106.58,106.58,0,0,1,54.67,15,127.49,127.49,0,0,0-88.78-35.8c-70.4,0-127.48,56.65-127.48,126.53s57.08,126.53,127.48,126.53a127.49,127.49,0,0,0,88.78-35.8A106.58,106.58,0,0,1,599.85,505.72Z"/><polygon class="cls-4" points="649.04 400 686.46 387.93 686.46 348.88 709.58 380.48 746.99 368.41 723.87 400 746.99 431.59 709.58 419.52 686.46 451.11 686.46 412.07 649.04 400"/></g></svg>
