<svg width="204" height="136" xmlns="http://www.w3.org/2000/svg" viewBox="0 0 1200 800"><defs><style>.cls-1{fill:#b22234;}.cls-2{stroke:#fff;stroke-miterlimit:10;stroke-width:50px;}.cls-3{fill:#3c3b6e;}.cls-4{fill:#fff;}</style></defs><g id="Layer_9" data-name="Layer 9"><rect class="cls-1" width="1200" height="800"/><path class="cls-2" d="M0,92.31H1200m0,123.07H0M0,338.46H1200m0,123.08H0M0,584.62H1200m0,123.07H0"/><rect class="cls-3" width="608" height="430.77"/><g id="s18"><g id="s9"><g id="s5"><g id="s4"><path id="s" class="cls-4" d="M50.67,18.46,65.14,63,27.26,35.47H74.08L36.2,63Z"/><path id="s-2" data-name="s" class="cls-4" d="M50.67,104.62l14.47,44.53L27.26,121.62H74.08L36.2,149.15Z"/><path id="s-3" data-name="s" class="cls-4" d="M50.67,190.77,65.14,235.3,27.26,207.78H74.08L36.2,235.3Z"/><path id="s-4" data-name="s" class="cls-4" d="M50.67,276.92l14.47,44.53L27.26,293.93H74.08L36.2,321.45Z"/></g><path id="s-5" data-name="s" class="cls-4" d="M50.67,363.08l14.47,44.53L27.26,380.09H74.08L36.2,407.61Z"/></g><g id="s4-2" data-name="s4"><path id="s-6" data-name="s" class="cls-4" d="M101.33,61.54l14.47,44.53L77.92,78.55h46.82L86.86,106.07Z"/><path id="s-7" data-name="s" class="cls-4" d="M101.33,147.69l14.47,44.53L77.92,164.7h46.82L86.86,192.22Z"/><path id="s-8" data-name="s" class="cls-4" d="M101.33,233.85l14.47,44.53L77.92,250.85h46.82L86.86,278.38Z"/><path id="s-9" data-name="s" class="cls-4" d="M101.33,320l14.47,44.53L77.92,337h46.82L86.86,364.53Z"/></g></g><g id="s9-2" data-name="s9"><g id="s5-2" data-name="s5"><g id="s4-3" data-name="s4"><path id="s-10" data-name="s" class="cls-4" d="M152,18.46,166.47,63,128.59,35.47h46.82L137.53,63Z"/><path id="s-11" data-name="s" class="cls-4" d="M152,104.62l14.47,44.53-37.88-27.53h46.82l-37.88,27.53Z"/><path id="s-12" data-name="s" class="cls-4" d="M152,190.77l14.47,44.53-37.88-27.52h46.82L137.53,235.3Z"/><path id="s-13" data-name="s" class="cls-4" d="M152,276.92l14.47,44.53-37.88-27.52h46.82l-37.88,27.52Z"/></g><path id="s-14" data-name="s" class="cls-4" d="M152,363.08l14.47,44.53-37.88-27.52h46.82l-37.88,27.52Z"/></g><g id="s4-4" data-name="s4"><path id="s-15" data-name="s" class="cls-4" d="M202.67,61.54l14.47,44.53L179.26,78.55h46.82L188.2,106.07Z"/><path id="s-16" data-name="s" class="cls-4" d="M202.67,147.69l14.47,44.53L179.26,164.7h46.82L188.2,192.22Z"/><path id="s-17" data-name="s" class="cls-4" d="M202.67,233.85l14.47,44.53-37.88-27.53h46.82L188.2,278.38Z"/><path id="s-18" data-name="s" class="cls-4" d="M202.67,320l14.47,44.53L179.26,337h46.82L188.2,364.53Z"/></g></g></g><g id="s18-2" data-name="s18"><g id="s9-3" data-name="s9"><g id="s5-3" data-name="s5"><g id="s4-5" data-name="s4"><path id="s-19" data-name="s" class="cls-4" d="M253.33,18.46,267.8,63,229.92,35.47h46.82L238.86,63Z"/><path id="s-20" data-name="s" class="cls-4" d="M253.33,104.62l14.47,44.53-37.88-27.53h46.82l-37.88,27.53Z"/><path id="s-21" data-name="s" class="cls-4" d="M253.33,190.77,267.8,235.3l-37.88-27.52h46.82L238.86,235.3Z"/><path id="s-22" data-name="s" class="cls-4" d="M253.33,276.92l14.47,44.53-37.88-27.52h46.82l-37.88,27.52Z"/></g><path id="s-23" data-name="s" class="cls-4" d="M253.33,363.08l14.47,44.53-37.88-27.52h46.82l-37.88,27.52Z"/></g><g id="s4-6" data-name="s4"><path id="s-24" data-name="s" class="cls-4" d="M304,61.54l14.47,44.53L280.59,78.55h46.82l-37.88,27.52Z"/><path id="s-25" data-name="s" class="cls-4" d="M304,147.69l14.47,44.53L280.59,164.7h46.82l-37.88,27.52Z"/><path id="s-26" data-name="s" class="cls-4" d="M304,233.85l14.47,44.53-37.88-27.53h46.82l-37.88,27.53Z"/><path id="s-27" data-name="s" class="cls-4" d="M304,320l14.47,44.53L280.59,337h46.82l-37.88,27.52Z"/></g></g><g id="s9-4" data-name="s9"><g id="s5-4" data-name="s5"><g id="s4-7" data-name="s4"><path id="s-28" data-name="s" class="cls-4" d="M354.67,18.46,369.14,63,331.26,35.47h46.82L340.2,63Z"/><path id="s-29" data-name="s" class="cls-4" d="M354.67,104.62l14.47,44.53-37.88-27.53h46.82L340.2,149.15Z"/><path id="s-30" data-name="s" class="cls-4" d="M354.67,190.77l14.47,44.53-37.88-27.52h46.82L340.2,235.3Z"/><path id="s-31" data-name="s" class="cls-4" d="M354.67,276.92l14.47,44.53-37.88-27.52h46.82L340.2,321.45Z"/></g><path id="s-32" data-name="s" class="cls-4" d="M354.67,363.08l14.47,44.53-37.88-27.52h46.82L340.2,407.61Z"/></g><g id="s4-8" data-name="s4"><path id="s-33" data-name="s" class="cls-4" d="M405.33,61.54l14.47,44.53L381.92,78.55h46.82l-37.88,27.52Z"/><path id="s-34" data-name="s" class="cls-4" d="M405.33,147.69l14.47,44.53L381.92,164.7h46.82l-37.88,27.52Z"/><path id="s-35" data-name="s" class="cls-4" d="M405.33,233.85l14.47,44.53-37.88-27.53h46.82l-37.88,27.53Z"/><path id="s-36" data-name="s" class="cls-4" d="M405.33,320l14.47,44.53L381.92,337h46.82l-37.88,27.52Z"/></g></g></g><g id="s9-5" data-name="s9"><g id="s5-5" data-name="s5"><g id="s4-9" data-name="s4"><path id="s-37" data-name="s" class="cls-4" d="M456,18.46,470.47,63,432.59,35.47h46.82L441.53,63Z"/><path id="s-38" data-name="s" class="cls-4" d="M456,104.62l14.47,44.53-37.88-27.53h46.82l-37.88,27.53Z"/><path id="s-39" data-name="s" class="cls-4" d="M456,190.77l14.47,44.53-37.88-27.52h46.82L441.53,235.3Z"/><path id="s-40" data-name="s" class="cls-4" d="M456,276.92l14.47,44.53-37.88-27.52h46.82l-37.88,27.52Z"/></g><path id="s-41" data-name="s" class="cls-4" d="M456,363.08l14.47,44.53-37.88-27.52h46.82l-37.88,27.52Z"/></g><g id="s4-10" data-name="s4"><path id="s-42" data-name="s" class="cls-4" d="M506.67,61.54l14.47,44.53L483.26,78.55h46.82L492.2,106.07Z"/><path id="s-43" data-name="s" class="cls-4" d="M506.67,147.69l14.47,44.53L483.26,164.7h46.82L492.2,192.22Z"/><path id="s-44" data-name="s" class="cls-4" d="M506.67,233.85l14.47,44.53-37.88-27.53h46.82L492.2,278.38Z"/><path id="s-45" data-name="s" class="cls-4" d="M506.67,320l14.47,44.53L483.26,337h46.82L492.2,364.53Z"/></g></g><g id="s5-6" data-name="s5"><g id="s4-11" data-name="s4"><path id="s-46" data-name="s" class="cls-4" d="M557.33,18.46,571.8,63,533.92,35.47h46.82L542.86,63Z"/><path id="s-47" data-name="s" class="cls-4" d="M557.33,104.62l14.47,44.53-37.88-27.53h46.82l-37.88,27.53Z"/><path id="s-48" data-name="s" class="cls-4" d="M557.33,190.77,571.8,235.3l-37.88-27.52h46.82L542.86,235.3Z"/><path id="s-49" data-name="s" class="cls-4" d="M557.33,276.92l14.47,44.53-37.88-27.52h46.82l-37.88,27.52Z"/></g><path id="s-50" data-name="s" class="cls-4" d="M557.33,363.08l14.47,44.53-37.88-27.52h46.82l-37.88,27.52Z"/></g></g></svg>
